<?xml version="1.0" encoding="utf-8"?><svg xmlns="http://www.w3.org/2000/svg" xmlns:xlink="http://www.w3.org/1999/xlink"><symbol viewBox="0 0 576 512" id="monitor" xmlns="http://www.w3.org/2000/svg"><!--!Font
    Awesome Free 6.5.1 by @fontawesome - https://fontawesome.com License -
    https://fontawesome.com/license/free Copyright 2024 Fonticons, Inc.--><path d="M528 0H48C21.5 0 0 21.5 0 48v320c0 26.5 21.5 48 48 48h192l-16 48h-72c-13.3 0-24 10.7-24 24s10.7 24 24 24h272c13.3 0 24-10.7 24-24s-10.7-24-24-24h-72l-16-48h192c26.5 0 48-21.5 48-48V48c0-26.5-21.5-48-48-48zm-16 352H64V64h448v288z"/></symbol><symbol viewBox="0 0 512 512" id="moon" xmlns="http://www.w3.org/2000/svg"><!--!Font
    Awesome Free 6.5.1 by @fontawesome - https://fontawesome.com License -
    https://fontawesome.com/license/free Copyright 2023 Fonticons, Inc.--><path d="M283.2 512c79 0 151.1-35.9 198.9-94.8 7.1-8.7-.6-21.4-11.6-19.4-124.2 23.7-238.3-71.6-238.3-197 0-72.2 38.7-138.6 101.5-174.4 9.7-5.5 7.3-20.2-3.8-22.2A258.2 258.2 0 0 0 283.2 0c-141.3 0-256 114.5-256 256 0 141.3 114.5 256 256 256z"/></symbol><symbol viewBox="0 0 512 512" id="sun" xmlns="http://www.w3.org/2000/svg"><!--!Font
    Awesome Free 6.5.1 by @fontawesome - https://fontawesome.com License -
    https://fontawesome.com/license/free Copyright 2023 Fonticons, Inc.--><path d="M256 160c-52.9 0-96 43.1-96 96s43.1 96 96 96 96-43.1 96-96-43.1-96-96-96zm246.4 80.5-94.7-47.3 33.5-100.4c4.5-13.6-8.4-26.5-21.9-21.9l-100.4 33.5-47.4-94.8c-6.4-12.8-24.6-12.8-31 0l-47.3 94.7L92.7 70.8c-13.6-4.5-26.5 8.4-21.9 21.9l33.5 100.4-94.7 47.4c-12.8 6.4-12.8 24.6 0 31l94.7 47.3-33.5 100.5c-4.5 13.6 8.4 26.5 21.9 21.9l100.4-33.5 47.3 94.7c6.4 12.8 24.6 12.8 31 0l47.3-94.7 100.4 33.5c13.6 4.5 26.5-8.4 21.9-21.9l-33.5-100.4 94.7-47.3c13-6.5 13-24.7.2-31.1zm-155.9 106c-49.9 49.9-131.1 49.9-181 0-49.9-49.9-49.9-131.1 0-181 49.9-49.9 131.1-49.9 181 0 49.9 49.9 49.9 131.1 0 181z"/></symbol></svg>