<?xml version="1.0" encoding="utf-8"?><svg xmlns="http://www.w3.org/2000/svg" xmlns:xlink="http://www.w3.org/1999/xlink"><symbol viewBox="0 0 512 512" id="locale" xmlns="http://www.w3.org/2000/svg"><path d="M352 256c0 22.2-1.2 43.6-3.3 64H163.3c-2.2-20.4-3.3-41.8-3.3-64s1.2-43.6 3.3-64h185.4c2.2 20.4 3.3 41.8 3.3 64zm28.8-64h123.1c5.3 20.5 8.1 41.9 8.1 64s-2.8 43.5-8.1 64H380.8c2.1-20.6 3.2-42 3.2-64s-1.1-43.4-3.2-64zm112.6-32H376.7c-10-63.9-29.8-117.4-55.3-151.6 78.3 20.7 142 77.5 171.9 151.6zm-149.1 0H167.7c6.1-36.4 15.5-68.6 27-94.7 10.5-23.6 22.2-40.7 33.5-51.5C239.4 3.2 248.7 0 256 0s16.6 3.2 27.8 13.8c11.3 10.8 23 27.9 33.5 51.5 11.6 26 20.9 58.2 27 94.7zm-209 0H18.6c30-74.1 93.6-130.9 172-151.6-25.5 34.2-45.3 87.7-55.3 151.6zM8.1 192h123.1c-2.1 20.6-3.2 42-3.2 64s1.1 43.4 3.2 64H8.1C2.8 299.5 0 278.1 0 256s2.8-43.5 8.1-64zm186.6 254.6c-11.6-26-20.9-58.2-27-94.6h176.6c-6.1 36.4-15.5 68.6-27 94.6-10.5 23.6-22.2 40.7-33.5 51.5-11.2 10.7-20.5 13.9-27.8 13.9s-16.6-3.2-27.8-13.8c-11.3-10.8-23-27.9-33.5-51.5zM135.3 352c10 63.9 29.8 117.4 55.3 151.6-78.4-20.7-142-77.5-172-151.6h116.7zm358.1 0c-30 74.1-93.6 130.9-171.9 151.6 25.5-34.2 45.2-87.7 55.3-151.6h116.6z"/></symbol><symbol viewBox="0 0 576 512" id="monitor" xmlns="http://www.w3.org/2000/svg"><path fill="var(--fill-color, currentColor)" d="M528 0H48C21.5 0 0 21.5 0 48v320c0 26.5 21.5 48 48 48h192l-16 48h-72c-13.3 0-24 10.7-24 24s10.7 24 24 24h272c13.3 0 24-10.7 24-24s-10.7-24-24-24h-72l-16-48h192c26.5 0 48-21.5 48-48V48c0-26.5-21.5-48-48-48zm-16 352H64V64h448v288z"/></symbol><symbol viewBox="0 0 512 512" id="moon" xmlns="http://www.w3.org/2000/svg"><path fill="var(--fill-color, currentColor)" d="M283.2 512c79 0 151.1-35.9 198.9-94.8 7.1-8.7-.6-21.4-11.6-19.4-124.2 23.7-238.3-71.6-238.3-197 0-72.2 38.7-138.6 101.5-174.4 9.7-5.5 7.3-20.2-3.8-22.2A258.2 258.2 0 0 0 283.2 0c-141.3 0-256 114.5-256 256 0 141.3 114.5 256 256 256z"/></symbol><symbol viewBox="0 0 512 512" id="sun" xmlns="http://www.w3.org/2000/svg"><path fill="var(--fill-color, currentColor)" d="M256 160c-52.9 0-96 43.1-96 96s43.1 96 96 96 96-43.1 96-96-43.1-96-96-96zm246.4 80.5-94.7-47.3 33.5-100.4c4.5-13.6-8.4-26.5-21.9-21.9l-100.4 33.5-47.4-94.8c-6.4-12.8-24.6-12.8-31 0l-47.3 94.7L92.7 70.8c-13.6-4.5-26.5 8.4-21.9 21.9l33.5 100.4-94.7 47.4c-12.8 6.4-12.8 24.6 0 31l94.7 47.3-33.5 100.5c-4.5 13.6 8.4 26.5 21.9 21.9l100.4-33.5 47.3 94.7c6.4 12.8 24.6 12.8 31 0l47.3-94.7 100.4 33.5c13.6 4.5 26.5-8.4 21.9-21.9l-33.5-100.4 94.7-47.3c13-6.5 13-24.7.2-31.1zm-155.9 106c-49.9 49.9-131.1 49.9-181 0-49.9-49.9-49.9-131.1 0-181 49.9-49.9 131.1-49.9 181 0 49.9 49.9 49.9 131.1 0 181z"/></symbol></svg>